<svg width="42" height="42" viewBox="0 0 42 42" fill="none" xmlns="http://www.w3.org/2000/svg">
    <circle cx="21" cy="21" r="21" fill="#72C3EF"/>
    <mask id="mask0_82_2107" style="mask-type:luminance" maskUnits="userSpaceOnUse" x="0" y="0" width="42" height="42">
        <circle cx="21" cy="21" r="21" fill="white"/>
    </mask>
    <g mask="url(#mask0_82_2107)">
    </g>
    <mask id="mask1_82_2107" style="mask-type:luminance" maskUnits="userSpaceOnUse" x="0" y="0" width="42" height="42">
        <circle cx="21" cy="21" r="21" fill="white"/>
    </mask>
    <g mask="url(#mask1_82_2107)">
        <path d="M17.4777 29.3749C19.9726 30.5863 22.9741 30.7518 25.6266 29.9817C26.3302 29.7768 27.017 29.4999 27.6587 29.1452C27.8625 29.0326 27.9289 28.7523 27.8129 28.5553C27.697 28.3583 27.4279 28.2873 27.223 28.401C26.9596 28.5463 26.6894 28.6791 26.4124 28.7962C26.4923 28.7624 26.3651 28.8154 26.3606 28.8165C26.328 28.83 26.2953 28.8424 26.2627 28.8548C26.1906 28.8829 26.1186 28.9099 26.0454 28.937C25.899 28.991 25.7504 29.0405 25.6018 29.0867C25.2978 29.1813 24.9905 29.2623 24.6786 29.3299C24.5277 29.3625 24.3769 29.3918 24.2249 29.4188C24.1449 29.4323 24.065 29.4458 23.984 29.4582C23.9547 29.4627 23.9254 29.4672 23.8961 29.4717C23.8669 29.4762 23.8376 29.4796 23.8083 29.4841C23.8489 29.4785 23.8432 29.4796 23.7903 29.4864C23.1339 29.5652 22.4742 29.5967 21.8133 29.5685C21.4812 29.555 21.1502 29.5269 20.8203 29.4841C20.8395 29.4864 20.8901 29.4942 20.8001 29.4819C20.755 29.4751 20.71 29.4695 20.6661 29.4616C20.5918 29.4503 20.5175 29.438 20.4432 29.4244C20.2732 29.3952 20.1032 29.3614 19.9343 29.3231C19.5763 29.2432 19.2228 29.1441 18.876 29.0259C18.4977 28.8964 18.2534 28.7962 17.9112 28.6296C17.7018 28.5283 17.4451 28.5722 17.3212 28.7838C17.2109 28.973 17.266 29.2713 17.4755 29.3738L17.4777 29.3749Z" fill="#1E1E1E"/>
        <path d="M24.2745 46.4501C22.7411 46.5816 21.2153 46.5627 19.8326 46.544C16.5632 46.5008 12.4623 45.6669 11.9081 41.2882C11.5149 38.1824 11.745 34.6439 12.694 31.5812C13.3902 29.3328 14.5417 28.8676 16.7261 28.8229C20.9621 28.7364 25.0314 28.3151 28.2755 28.3707C31.9448 28.4336 32.5041 32.1268 33.293 36.2228C34.1445 40.6462 33.6024 42.3081 31.9716 44.0209C30.0432 46.0462 26.9542 46.2211 24.2745 46.4501Z" fill="#E8E8E8"/>
        <path d="M24.159 46.0695C22.6715 46.1954 21.1777 46.1864 19.6867 46.1637C19.4679 46.1604 19.2489 46.1537 19.0309 46.1425C18.9247 46.1373 18.8184 46.131 18.7133 46.1235C18.6601 46.1204 18.607 46.1161 18.5538 46.1118C18.5323 46.1106 18.5108 46.1082 18.4893 46.1069C18.3536 46.0964 18.5357 46.1115 18.452 46.1042C18.0048 46.0609 17.5591 46.0028 17.1167 45.9164C16.6742 45.83 16.2407 45.7184 15.8169 45.5737C15.7665 45.5558 15.716 45.5379 15.6656 45.5199C15.7894 45.5649 15.6289 45.5059 15.5978 45.4927C15.4888 45.4504 15.3807 45.4048 15.2736 45.3568C15.071 45.266 14.8725 45.1659 14.6802 45.0554C14.5888 45.0034 14.4994 44.9489 14.4111 44.8922C14.367 44.8638 14.3239 44.8343 14.2797 44.8048C14.1889 44.7437 14.3614 44.8652 14.2727 44.8006C14.247 44.7815 14.2214 44.7636 14.1969 44.7456C14.0194 44.6141 13.8505 44.4721 13.6912 44.3195C13.6145 44.2464 13.5411 44.171 13.4687 44.0932C13.4331 44.0543 13.3974 44.0143 13.3628 43.9742C13.4367 44.0587 13.3843 44.0002 13.3664 43.9774C13.3425 43.9481 13.3186 43.9188 13.2958 43.8894C13.1543 43.7089 13.0248 43.5178 12.9095 43.318C12.8531 43.2203 12.8 43.1203 12.7501 43.0189C12.7128 42.944 12.7502 43.02 12.7564 43.0333C12.7425 43.0012 12.7276 42.9704 12.7137 42.9383C12.6848 42.8743 12.658 42.8091 12.6324 42.7438C12.5393 42.5103 12.4638 42.2704 12.4017 42.0265C12.3699 41.9006 12.3436 41.7733 12.3185 41.646C12.3036 41.5678 12.3361 41.7579 12.3166 41.6292C12.3102 41.5889 12.3038 41.5487 12.2975 41.5095C12.2859 41.4312 12.2755 41.3539 12.2662 41.2754C12.2261 40.9482 12.1927 40.6195 12.1672 40.2905C12.1124 39.5999 12.0889 38.9056 12.0926 38.2134C12.0953 37.8616 12.1048 37.5095 12.1221 37.1571C12.13 36.9888 12.1402 36.8204 12.1515 36.653C12.1577 36.5693 12.1639 36.4845 12.1701 36.4008C12.1704 36.4064 12.183 36.2413 12.1766 36.3216C12.181 36.2707 12.1854 36.2209 12.1909 36.1699C12.3222 34.7831 12.5687 33.4033 12.9592 32.0653C13.003 31.9167 13.0468 31.7681 13.0951 31.6205C13.1188 31.5495 13.1426 31.4796 13.1675 31.4097C13.1615 31.4258 13.1353 31.4924 13.1676 31.412C13.1837 31.3706 13.1998 31.3293 13.217 31.2879C13.307 31.0673 13.4108 30.8517 13.5331 30.6465C13.5603 30.6013 13.5886 30.556 13.6181 30.5118C13.6317 30.4908 13.6953 30.4033 13.6212 30.506C13.6328 30.4897 13.6444 30.4733 13.6572 30.457C13.7219 30.3705 13.7912 30.2861 13.8642 30.2072C13.9243 30.1424 13.9924 30.057 14.0679 30.0095C13.9508 30.0837 14.0767 30.0034 14.1072 29.9806C14.1507 29.947 14.1965 29.9144 14.2424 29.8841C14.3189 29.8332 14.3978 29.7855 14.4804 29.7434C14.5035 29.731 14.5297 29.714 14.5553 29.706C14.5487 29.7086 14.4515 29.7526 14.5234 29.7222C14.5753 29.6995 14.6272 29.6768 14.6803 29.6562C14.874 29.5807 15.0754 29.5251 15.2797 29.4817C15.3053 29.476 15.3311 29.4725 15.3567 29.4657C15.4246 29.449 15.2381 29.4848 15.3444 29.4674C15.3981 29.4592 15.4517 29.45 15.5055 29.4418C15.6286 29.4248 15.7531 29.41 15.8777 29.3996C16.1369 29.3762 16.3979 29.3652 16.658 29.3598C18.1746 29.326 19.6905 29.254 21.2059 29.1708C22.628 29.0919 24.0507 29.0039 25.475 28.9486C26.1231 28.9239 26.7725 28.9059 27.4216 28.9026C27.7202 28.9011 28.021 28.8994 28.3202 28.9102C28.3801 28.913 28.4411 28.9169 28.501 28.9198C28.5247 28.9209 28.5905 28.9302 28.484 28.9183C28.5191 28.9223 28.5531 28.9252 28.5882 28.9292C28.7061 28.9429 28.8219 28.9611 28.938 28.985C29.054 29.0089 29.1578 29.0345 29.2664 29.0666C29.3167 29.0811 29.3659 29.0969 29.4151 29.1137C29.4323 29.1197 29.4596 29.1252 29.4736 29.1347C29.3759 29.0705 29.453 29.1277 29.4897 29.1429C29.6782 29.2198 29.8595 29.3127 30.0314 29.4219C30.0558 29.4377 30.0802 29.4545 30.1046 29.4703C30.1744 29.5155 30.0804 29.4579 30.0801 29.4523C30.081 29.4703 30.1782 29.5244 30.1969 29.5393C30.2811 29.6052 30.3622 29.6747 30.44 29.7477C30.5118 29.8142 30.5805 29.8842 30.6458 29.9556C30.666 29.9772 30.6851 29.9999 30.7052 30.0215C30.7623 30.0854 30.6896 29.9997 30.6873 29.9998C30.7156 30.003 30.7794 30.1128 30.7998 30.14C30.9306 30.3097 31.0494 30.489 31.1573 30.6744C31.2111 30.7654 31.2617 30.8589 31.31 30.9524C31.3348 31.0008 31.3585 31.0493 31.3822 31.0967C31.3236 30.9777 31.4148 31.1684 31.4274 31.1971C31.6275 31.6431 31.7855 32.1068 31.9236 32.576C32.2308 33.6267 32.4345 34.7048 32.6392 35.7795C32.8628 36.9468 33.0881 38.1253 33.1346 39.3607C33.1438 39.606 33.1463 39.8516 33.1375 40.0965C33.1335 40.2049 33.1284 40.3134 33.1199 40.4208C33.1187 40.4423 33.1163 40.4627 33.115 40.4842C33.1067 40.595 33.1269 40.3766 33.1151 40.4853C33.1089 40.5465 33.1027 40.6065 33.0954 40.6677C33.048 41.052 32.9677 41.4322 32.8429 41.7987C32.829 41.8388 32.8 41.9912 32.8271 41.8468C32.8199 41.8865 32.7949 41.9294 32.7798 41.9673C32.7464 42.05 32.7097 42.1318 32.6718 42.2135C32.598 42.3703 32.5161 42.5229 32.426 42.6702C32.3821 42.7422 32.337 42.8142 32.2895 42.884C32.2758 42.9049 32.261 42.9259 32.2462 42.9469C32.2052 43.0085 32.2674 42.9177 32.2695 42.9131C32.2456 42.9571 32.2091 42.9971 32.1795 43.0379C32.0703 43.185 31.9541 43.328 31.8332 43.4666C31.691 43.6299 31.5441 43.7901 31.3889 43.9416C31.3382 43.9913 31.2863 44.0388 31.2333 44.0864C31.202 44.1149 31.1706 44.1423 31.138 44.1697C31.1521 44.1578 31.1999 44.1184 31.1315 44.1745C31.0121 44.2714 30.8913 44.365 30.7647 44.4521C30.5256 44.6188 30.2756 44.768 30.0169 44.8995C29.9927 44.9119 29.9674 44.9244 29.9431 44.9368C29.9344 44.9417 29.8097 44.9994 29.9013 44.9579C29.8384 44.9868 29.7755 45.0156 29.7114 45.0434C29.5711 45.1041 29.4284 45.1615 29.2844 45.2144C28.7326 45.4172 28.1612 45.5634 27.5838 45.676C27.5492 45.6833 27.5134 45.6895 27.4777 45.6956C27.5804 45.6762 27.4396 45.7019 27.4296 45.7047C27.3592 45.717 27.2876 45.7293 27.2171 45.7405C27.0684 45.7644 26.9184 45.7872 26.7683 45.8077C26.4761 45.8484 26.1835 45.8824 25.8896 45.913C25.3142 45.9726 24.7371 46.0188 24.1601 46.0683C23.921 46.0885 23.6984 46.295 23.7216 46.5498C23.7441 46.7899 23.946 47.0104 24.2031 46.9882C26.6211 46.7816 29.2905 46.6455 31.3339 45.1772C32.095 44.6299 32.7552 43.9003 33.2406 43.0976C33.6538 42.4133 33.9003 41.6343 33.9951 40.842C34.1252 39.7449 34.0375 38.6389 33.8783 37.5497C33.693 36.2859 33.439 35.023 33.1664 33.7746C32.7562 31.8958 32.1839 29.7078 30.4554 28.6086C30.0616 28.3577 29.6096 28.1872 29.1532 28.0924C28.5842 27.9748 27.9985 27.983 27.4192 27.9842C26.0444 27.9887 24.6703 28.0575 23.2976 28.1318C21.7732 28.2144 20.2481 28.3082 18.7229 28.3728C17.9546 28.4054 17.1866 28.4199 16.418 28.4457C15.8981 28.4632 15.3775 28.5123 14.8703 28.633C13.9462 28.8532 13.2034 29.4063 12.7163 30.2203C12.4174 30.7212 12.2306 31.2822 12.0673 31.8387C11.867 32.5221 11.7046 33.2172 11.5761 33.9175C11.312 35.3544 11.181 36.819 11.1727 38.2801C11.1686 38.9892 11.195 39.698 11.2529 40.4054C11.307 41.0565 11.3726 41.7128 11.5364 42.3476C11.7937 43.342 12.3111 44.2601 13.0491 44.9773C13.7469 45.6547 14.6126 46.1147 15.5237 46.4384C17.5512 47.1595 19.7786 47.1174 21.8997 47.0915C22.669 47.0825 23.4374 47.0522 24.2042 46.9882C24.4433 46.968 24.6659 46.7615 24.6427 46.5067C24.6201 46.2654 24.4183 46.0472 24.1612 46.0683L24.159 46.0695Z" fill="#1E1E1E"/>
        <path d="M12.1102 31.5337C11.6602 31.912 11.2007 32.2818 10.7781 32.6926C10.2563 33.1994 9.80607 33.766 9.39916 34.3677C9.26426 34.5679 9.38533 34.8913 9.59388 34.9886C9.84049 35.1045 10.0704 35.0081 10.2148 34.7939C10.3076 34.6566 10.3869 34.5447 10.5015 34.3939C10.6045 34.2584 10.711 34.1249 10.821 33.9947C11.0217 33.7565 11.2354 33.529 11.4596 33.3111C11.6558 33.1205 11.8604 32.9396 12.0673 32.7608C12.1095 32.7239 12.0066 32.8121 12.0727 32.7561C12.0998 32.7334 12.127 32.7107 12.154 32.6869C12.2039 32.6451 12.2527 32.6034 12.3026 32.5627C12.4057 32.4768 12.5087 32.3908 12.6118 32.3048C12.7951 32.1509 12.9033 31.8877 12.7477 31.6684C12.6175 31.4863 12.3087 31.3678 12.1113 31.5325L12.1102 31.5337Z" fill="#1E1E1E"/>
        <path d="M9.73878 34.3385C9.22997 34.1831 8.6235 34.2531 8.22374 34.6223C8.0314 34.7993 7.90227 35.0747 7.86697 35.3322C7.82439 35.6509 7.87212 35.9484 8.01737 36.2347C8.13782 36.4725 8.3571 36.6786 8.60522 36.7786C8.90388 36.8988 9.212 36.908 9.52395 36.8303C9.78019 36.7665 10.0461 36.6211 10.2181 36.4169C10.4124 36.1869 10.4998 35.9112 10.5096 35.6132C10.5193 35.3152 10.4195 35.0122 10.2672 34.768C10.1892 34.6431 10.055 34.5457 9.94679 34.4482C9.76903 34.2863 9.45575 34.2875 9.29676 34.4786C9.13776 34.6698 9.13645 34.955 9.32716 35.1286C9.40485 35.1994 9.48255 35.2701 9.56024 35.3409L9.4839 35.2509C9.50588 35.2871 9.52561 35.3234 9.54544 35.3619L9.49418 35.2538C9.54165 35.353 9.57578 35.4563 9.59657 35.5635L9.57397 35.4417C9.58948 35.5323 9.59481 35.6222 9.58665 35.7127L9.59778 35.5894C9.59087 35.6584 9.57593 35.7245 9.55306 35.7898L9.59401 35.6774C9.57195 35.736 9.54406 35.7902 9.51039 35.8414L9.578 35.7447C9.541 35.7971 9.49807 35.8431 9.45037 35.8836L9.54035 35.8073C9.48173 35.8551 9.417 35.8931 9.3487 35.9267L9.45675 35.8755C9.3674 35.9168 9.27532 35.9482 9.17928 35.9673L9.30108 35.9447C9.21281 35.9613 9.12402 35.9665 9.0347 35.9606L9.15807 35.9717C9.0777 35.9642 8.99921 35.9487 8.92351 35.9207L9.03588 35.9616C8.97961 35.9395 8.92646 35.9115 8.87642 35.8778L8.97313 35.9454C8.92186 35.9095 8.87707 35.8676 8.83545 35.8211L8.91179 35.9111C8.86289 35.8536 8.82278 35.7913 8.78916 35.723L8.84042 35.831C8.80536 35.756 8.78031 35.6783 8.76527 35.5979L8.78788 35.7196C8.77248 35.6313 8.76832 35.5425 8.77541 35.4531L8.76428 35.5765C8.77281 35.4938 8.79049 35.4141 8.81841 35.3361L8.77745 35.4485C8.80461 35.3785 8.83867 35.3115 8.88199 35.2498L8.81438 35.3465C8.84403 35.3056 8.87844 35.2702 8.9152 35.2369L8.82523 35.3133C8.87405 35.2727 8.92548 35.2398 8.98163 35.2113L8.87357 35.2626C8.95629 35.2237 9.04183 35.1972 9.13235 35.1806L9.01055 35.2032C9.12351 35.1844 9.23715 35.1802 9.35136 35.1884L9.22799 35.1772C9.33326 35.187 9.43671 35.2058 9.53848 35.2371C9.76944 35.3074 10.047 35.122 10.0892 34.8901C10.1356 34.6299 9.98805 34.4147 9.74221 34.3394L9.73878 34.3385Z" fill="#1E1E1E"/>
        <path d="M8.57639 36.4313C8.47681 36.9048 8.4169 37.3832 8.3729 37.8643C8.33685 38.2503 8.32853 38.6508 8.25618 39.0318L9.16498 39.1121C9.16365 39.0355 9.16808 38.9857 9.1417 38.9036C9.03846 38.5759 8.58848 38.4493 8.35214 38.7218C8.23341 38.8581 8.16619 39.0596 8.07432 39.2161C7.77496 39.7316 7.45699 40.283 7.42236 40.8921C7.40485 41.1927 7.51837 41.5233 7.74873 41.7255C7.88508 41.8454 8.05188 41.9176 8.23298 41.9339C8.345 41.9433 8.44621 41.9386 8.55644 41.9098C8.66668 41.881 8.50317 41.9033 8.57085 41.9046C8.6002 41.9055 8.66903 41.8831 8.69456 41.8988L8.63576 41.8948C8.65617 41.8972 8.67667 41.9019 8.696 41.9055C8.71538 41.9102 8.73364 41.915 8.75302 41.9198C8.80442 41.9343 8.85495 41.9544 8.90645 41.9712C9.05063 42.0174 9.20452 42.0305 9.35257 41.9909C9.74208 41.8848 9.95613 41.4972 9.97665 41.1164C9.99716 40.7356 9.83094 40.3625 9.6665 40.0275C9.50207 39.6926 9.33705 39.3453 9.14727 39.0228C9.02487 38.8155 8.70721 38.7469 8.51088 38.8869C8.30035 39.0365 8.24401 39.3017 8.37496 39.5232C8.50592 39.7448 8.61886 39.9908 8.73915 40.2253C8.78753 40.32 8.83817 40.4145 8.88548 40.5104C8.84324 40.4267 8.91322 40.5733 8.92198 40.5921C8.94726 40.6506 8.97029 40.7093 8.99107 40.768C9.00929 40.8201 9.02638 40.8723 9.04015 40.9258C9.04421 40.9402 9.06497 41.0227 9.05088 40.9625C9.0368 40.9023 9.0529 40.9815 9.05476 40.9972C9.05843 41.0275 9.05766 41.0591 9.0602 41.0894C9.06413 41.1253 9.04081 41.1568 9.06391 41.0723C9.05806 41.0917 9.05262 41.1202 9.05014 41.1395C9.05952 41.0748 9.09012 41.1026 9.04774 41.1362C9.00535 41.1697 9.08298 41.0703 9.05616 41.1234C9.04173 41.1522 8.98817 41.1638 9.04345 41.1409C9.12975 41.1064 8.97831 41.1699 9.07517 41.1202C9.17203 41.0706 9.01251 41.1299 9.12515 41.1044C9.22327 41.0818 9.0828 41.0906 9.1825 41.1017C9.26518 41.1102 9.20745 41.105 9.18909 41.098C9.15472 41.0861 9.11939 41.0776 9.08389 41.0657C8.88463 40.9984 8.68096 40.9572 8.46967 40.9942C8.416 41.0034 8.36255 41.0172 8.30883 41.0253C8.32447 41.0224 8.40186 41.0142 8.31879 41.0215C8.28955 41.0229 8.23269 41.012 8.34267 41.026C8.31092 41.0219 8.27362 40.9954 8.36815 41.0406C8.30595 41.012 8.3954 41.045 8.39062 41.0632C8.39148 41.0575 8.34058 41.0295 8.3483 41.0258C8.35816 41.0197 8.41033 41.1232 8.37077 41.0484C8.36093 41.0308 8.30855 40.9713 8.3551 41.0266C8.39335 41.0732 8.36135 41.0398 8.35447 41.0131C8.34913 40.9953 8.34481 40.9752 8.33834 40.9575C8.31777 40.9032 8.33933 41.051 8.3457 40.9943C8.34716 40.9773 8.34171 40.9573 8.342 40.9393C8.3411 40.9201 8.34358 40.9009 8.34269 40.8818C8.33974 40.8188 8.32516 40.9648 8.34139 40.9021C8.35476 40.8508 8.35894 40.7953 8.37119 40.744C8.38248 40.6962 8.39601 40.6482 8.4118 40.6001C8.41969 40.5761 8.42871 40.552 8.43547 40.528C8.40793 40.6138 8.42748 40.5498 8.43563 40.5314C8.48012 40.4222 8.52808 40.3152 8.5806 40.209C8.68161 40.0071 8.79536 39.8124 8.90905 39.6166C8.94761 39.5494 8.98735 39.4833 9.02243 39.4141C9.03584 39.3875 9.0492 39.3598 9.06143 39.3322C9.06648 39.3196 9.0726 39.3058 9.07652 39.2932C9.09536 39.2382 9.13846 39.2441 9.03594 39.3413L8.83903 39.4689L8.84353 39.4686C8.69206 39.4352 8.54177 39.4027 8.39036 39.3704L8.24923 39.076C8.24923 39.076 8.24976 39.0873 8.25002 39.0929C8.24819 39.102 8.25092 39.112 8.25021 39.1211C8.24844 39.1313 8.24901 39.1437 8.24949 39.1538C8.26115 39.6683 9.06054 39.747 9.15829 39.2342C9.23064 38.8532 9.23896 38.4527 9.27501 38.0667C9.32013 37.5856 9.37886 37.1061 9.47849 36.6337C9.52833 36.398 9.37819 36.1278 9.13152 36.083C8.88485 36.0382 8.63444 36.1784 8.58083 36.43L8.57639 36.4313Z" fill="#1E1E1E"/>
        <path d="M32.6268 30.8702C33.0474 30.453 33.4842 30.0554 33.9446 29.6828C34.405 29.3101 34.8463 28.9831 35.2955 28.632C35.4853 28.4831 35.5218 28.1665 35.3585 27.9843C35.1952 27.8022 34.9139 27.7635 34.7108 27.9214C34.2616 28.2725 33.8031 28.6136 33.3599 28.9721C32.9167 29.3306 32.4627 29.7423 32.0421 30.1596C31.8718 30.3285 31.8026 30.6102 31.9791 30.8072C32.1333 30.9783 32.444 31.0515 32.6268 30.8702Z" fill="#1E1E1E"/>
        <path d="M35.7395 26.933C35.838 26.8923 35.9381 26.864 36.0431 26.8444L35.9213 26.867C36.0343 26.8482 36.1477 26.8406 36.262 26.8499L36.1386 26.8388C36.2292 26.847 36.318 26.8654 36.4039 26.8963L36.2916 26.8553C36.3501 26.8785 36.4055 26.9063 36.4568 26.9423L36.3601 26.8747C36.4009 26.9043 36.4374 26.9375 36.4707 26.9743L36.3944 26.8843C36.4433 26.9418 36.4834 27.0041 36.517 27.0724L36.4657 26.9644C36.5008 27.0394 36.5258 27.1171 36.542 27.1986L36.5194 27.0768C36.5348 27.1652 36.539 27.254 36.5319 27.3434L36.543 27.22C36.5345 27.3027 36.5179 27.3812 36.49 27.4592L36.5309 27.3468C36.5038 27.4179 36.4697 27.4827 36.4264 27.5455L36.494 27.4488C36.4569 27.499 36.4162 27.5438 36.3685 27.5854L36.4585 27.5091C36.4118 27.5474 36.3615 27.5801 36.3076 27.6075L36.4156 27.5562C36.3418 27.5912 36.2662 27.615 36.1869 27.6289L36.3086 27.6063C36.2203 27.6206 36.1313 27.6225 36.042 27.6154L36.1653 27.6265C36.0679 27.6164 35.9722 27.5938 35.8805 27.5609L35.9929 27.6019C35.9217 27.5748 35.8537 27.543 35.7909 27.5009L35.8876 27.5685C35.8352 27.5315 35.7892 27.4897 35.7476 27.442L35.8239 27.532C35.7845 27.4843 35.7516 27.4328 35.7254 27.3766L35.7766 27.4846C35.7478 27.4217 35.7278 27.3573 35.7134 27.2892L35.736 27.411C35.7194 27.3216 35.7163 27.2316 35.7233 27.14L35.7122 27.2634C35.7228 27.1535 35.7472 27.0487 35.7852 26.9455L35.7443 27.0579C35.7593 27.0188 35.7767 26.9797 35.7952 26.9416L35.7276 27.0384C35.7983 26.9607 35.8691 26.883 35.9398 26.8053C36.1017 26.6275 36.1006 26.3142 35.9094 26.1552C35.7183 25.9962 35.4331 25.9949 35.2594 26.1856C35.1897 26.2622 35.1166 26.3377 35.0493 26.4164C34.9488 26.5327 34.8967 26.6963 34.8551 26.8425C34.8173 26.975 34.8025 27.1166 34.7999 27.2542C34.7948 27.5069 34.8698 27.784 35.0181 27.9912C35.1991 28.2454 35.4541 28.3969 35.749 28.4845C36.013 28.5635 36.3093 28.5609 36.574 28.4843C36.8764 28.3957 37.1181 28.1894 37.2804 27.9238C37.5912 27.4122 37.4848 26.7285 37.0949 26.2948C36.9093 26.0871 36.6186 25.9677 36.3457 25.941C36.0446 25.9122 35.7394 25.9423 35.4574 26.058C35.3446 26.1039 35.2509 26.1714 35.1929 26.2823C35.1402 26.3839 35.1222 26.5302 35.1634 26.6387C35.2458 26.858 35.5052 27.0307 35.744 26.9328L35.7395 26.933Z" fill="#1E1E1E"/>
        <path d="M36.5874 25.7608C36.6617 25.7044 36.5606 25.7922 36.5653 25.7869C36.5855 25.7625 36.6079 25.7414 36.6292 25.7174C36.6829 25.6547 36.7339 25.5895 36.7822 25.522C36.9164 25.3393 37.0401 25.1497 37.1585 24.9579C37.1733 24.9348 37.2502 24.806 37.2086 24.8777C37.243 24.8201 37.2767 24.761 37.31 24.703C37.3779 24.5839 37.4442 24.4628 37.5084 24.3409C37.5726 24.219 37.6329 24.0978 37.6919 23.9736C37.72 23.9134 37.7481 23.8532 37.7752 23.7925C37.8105 23.7097 37.7825 23.6806 37.7737 23.8335L38.5041 24.2647C38.6741 24.1071 38.6737 24.0188 38.6337 24.1156C38.6192 24.1584 38.6275 24.1301 38.6568 24.03C38.6503 24.0737 38.65 24.043 38.6566 23.9357L38.5692 23.7185L38.5725 23.7223L38.2643 23.5408C38.1669 23.514 37.8745 23.6831 37.9818 23.5979C37.8355 23.7142 37.987 23.5915 38.0128 23.5682C38.0305 23.5525 38.0478 23.5379 38.0661 23.5236C38.1199 23.4805 38.1775 23.4402 38.2336 23.4004C38.3879 23.2912 38.5438 23.1839 38.6927 23.0699C38.7757 23.0073 38.8574 22.9418 38.9355 22.8735C38.9705 22.8432 39.0034 22.8119 39.0384 22.7815C39.0917 22.7369 38.9885 22.8325 39.0375 22.7836C39.0598 22.76 39.0826 22.738 39.1049 22.7144C39.1722 22.6427 39.2362 22.5672 39.2918 22.4857C39.3047 22.4667 39.3181 22.4467 39.3301 22.4273C39.3214 22.442 39.2877 22.5182 39.317 22.4438C39.324 22.4272 39.3326 22.41 39.3386 22.393C39.3487 22.3692 39.3884 22.3164 39.3487 22.3692C39.3156 22.4126 39.3415 22.3918 39.3469 22.3562C39.3572 22.292 39.3536 22.3407 39.3531 22.3417C39.3491 22.3425 39.3526 22.3917 39.3512 22.3262C39.3501 22.2914 39.3667 22.2667 39.3517 22.3105C39.3389 22.3491 39.3624 22.3371 39.3434 22.2984C39.321 22.2534 39.3655 22.3384 39.3649 22.3369C39.3279 22.2746 39.3744 22.3434 39.3867 22.3548C39.353 22.3306 39.3538 22.3285 39.3864 22.3498C39.4209 22.3694 39.4188 22.3685 39.3793 22.3492C39.363 22.3472 39.2906 22.3334 39.3864 22.3498C39.3589 22.3454 39.3327 22.3379 39.3061 22.3314C39.2313 22.3118 39.1539 22.2923 39.0833 22.2597C38.9794 22.2106 38.8792 22.1471 38.7925 22.0721C38.7392 22.0249 38.6882 21.9751 38.6353 21.9268C38.5557 21.8525 38.692 21.9461 38.6445 21.9283C38.6486 21.93 38.7695 21.9509 38.6975 21.9447L38.7671 21.945C38.7316 21.9507 38.7321 21.9497 38.7684 21.9419C38.8175 21.9531 38.7821 21.9356 38.7485 21.9542C38.69 21.9881 38.813 21.912 38.7603 21.9495C38.7076 21.987 38.8189 21.8925 38.7706 21.9368C38.7591 21.9465 38.7066 22.0037 38.7505 21.9551C38.7917 21.9103 38.7479 21.9613 38.7391 21.9821C38.7316 21.9997 38.7245 22.0162 38.717 22.0338C38.7068 22.0577 38.6998 22.0828 38.6917 22.1075C38.7248 22.0041 38.6906 22.1303 38.6875 22.1461C38.6654 22.2725 38.6571 22.4012 38.6548 22.5299C38.6562 22.4522 38.6545 22.5249 38.6555 22.54C38.6566 22.5747 38.6566 22.609 38.6583 22.6452C38.6599 22.7047 38.664 22.7639 38.6667 22.8238C38.6819 23.1154 38.678 23.4087 38.7073 23.699C38.7314 23.9382 38.5607 24.1922 38.3082 24.2131C38.0558 24.234 37.8198 24.0697 37.7942 23.8141C37.7592 23.4712 37.7588 23.1246 37.7465 22.7804C37.7331 22.4185 37.7383 22.056 37.8579 21.7093C37.9776 21.3625 38.2793 21.0738 38.6516 21.033C38.839 21.0125 39.0195 21.0686 39.1709 21.1785C39.2495 21.2352 39.3131 21.3101 39.388 21.3726C39.396 21.3797 39.4532 21.4322 39.4621 21.4286C39.4694 21.4257 39.3688 21.3889 39.4436 21.4146C39.4612 21.4221 39.5734 21.4602 39.4672 21.4308C39.5344 21.4485 39.5992 21.4602 39.6675 21.4807C39.8422 21.5331 39.9947 21.6434 40.1035 21.7902C40.3095 22.0677 40.3097 22.4606 40.1802 22.7701C39.9489 23.3214 39.3935 23.7113 38.9214 24.0436C38.83 24.1087 38.736 24.1714 38.6473 24.2389C38.6309 24.2515 38.6155 24.2645 38.5991 24.2771C38.5007 24.3502 38.729 24.1476 38.5937 24.2784C38.5018 24.3678 38.4061 24.4371 38.2735 24.4553C37.9614 24.4985 37.7041 24.2236 37.7425 23.9181C37.7621 23.76 37.8403 23.6342 37.9543 23.5274C38.0861 23.4049 38.3216 23.4208 38.4619 23.5051C38.6258 23.6031 38.696 23.7713 38.6847 23.9587C38.6784 24.0624 38.6096 24.1837 38.5663 24.2766C38.5057 24.4074 38.4424 24.5358 38.3755 24.664C38.2278 24.9474 38.0681 25.2244 37.9016 25.4973C37.6919 25.84 37.4634 26.2554 37.1364 26.5028C36.9445 26.6486 36.6306 26.6127 36.4926 26.4082C36.3546 26.2038 36.3827 25.9196 36.5871 25.7644L36.5874 25.7608Z" fill="#1E1E1E"/>
        <path d="M24.6574 38.2863C24.6517 38.2618 24.6438 38.2373 24.6348 38.2141C24.627 38.1435 24.6158 38.073 24.5958 38.0063C24.5338 37.7894 24.3685 37.6281 24.1868 37.5036C24.0238 37.3917 23.8328 37.3082 23.6359 37.2904C23.6896 37.2575 23.7431 37.2223 23.7944 37.1849C23.9523 37.0682 24.1217 36.9307 24.2079 36.7497C24.2438 36.6736 24.2637 36.5927 24.2734 36.51C24.3037 36.4364 24.3146 36.3548 24.3052 36.274C24.318 36.1619 24.3137 36.0471 24.2893 35.9344C24.2044 35.5405 23.8827 35.2174 23.4949 35.1195C23.2485 35.0566 22.9831 35.0454 22.7282 35.0652C22.6358 35.065 22.5434 35.0659 22.4499 35.0669C22.2189 35.0687 21.9893 35.0738 21.7586 35.0823C21.2522 35.0993 20.4573 35.1894 20.3379 35.2874C20.3346 35.2876 20.2266 35.3411 20.2233 35.3424C20.2199 35.3425 20.2165 35.3427 20.2132 35.3428C20.1791 35.2881 20.0717 35.3055 20.0699 35.3879C20.0467 36.6276 20.1688 37.696 20.2019 38.9342C20.2117 39.2877 20.2517 39.3962 20.279 39.5945C20.2877 39.6605 20.3567 39.8343 20.4481 39.8852C20.4562 39.8882 20.543 39.9371 20.6067 39.9499C20.8252 39.9949 21.3234 39.9469 21.824 39.9268C22.3156 39.9072 22.7987 39.8745 23.2886 39.8426C23.5426 39.8262 23.7461 39.7671 23.9827 39.6703C24.0049 39.6614 24.0295 39.6591 24.0366 39.6408C24.0549 39.6467 24.1106 39.608 24.1418 39.5772C24.1563 39.5743 24.1707 39.5691 24.1847 39.5549C24.2633 39.4758 24.3225 39.4403 24.3755 39.3454C24.4697 39.2136 24.5359 39.064 24.5691 38.9047C24.5811 38.8737 24.5933 38.8438 24.6031 38.8129C24.6277 38.7374 24.6781 38.6584 24.6578 38.5838C24.6686 38.4774 24.6814 38.3911 24.6563 38.2875L24.6574 38.2863ZM21.1951 39.7827C21.1524 39.7847 21.1096 39.7867 21.0658 39.7887C21.0654 39.782 21.0651 39.7752 21.0626 39.7686C21.0671 39.7684 21.0726 39.7659 21.077 39.7634C21.1105 39.7573 21.1452 39.7512 21.1787 39.7451C21.1794 39.7597 21.1856 39.773 21.194 39.7838L21.1951 39.7827ZM24.2677 37.7624C24.2972 37.7915 24.3246 37.8229 24.3498 37.8555C24.3399 37.8593 24.3311 37.8654 24.3225 37.8737C24.3118 37.8854 24.3058 37.9026 24.3043 37.9196C24.299 37.9266 24.2961 37.9358 24.2943 37.9449C24.2936 37.9539 24.2917 37.963 24.291 37.9721C24.291 37.971 24.2909 37.9698 24.2908 37.9676C24.2833 37.951 24.2668 37.936 24.2484 37.9279C24.2839 37.8913 24.2677 37.8345 24.2305 37.8104C24.237 37.8044 24.2435 37.7996 24.25 37.7937C24.2608 37.7841 24.2659 37.7726 24.2687 37.7601L24.2677 37.7624ZM23.9318 36.7728C23.9325 36.74 23.9175 36.7081 23.8841 36.6938C23.86 36.6837 23.8282 36.6795 23.8065 36.6975C23.8043 36.6987 23.8032 36.6999 23.8011 36.7022C23.7902 36.7106 23.7829 36.7222 23.7777 36.7326C23.7666 36.7354 23.7554 36.7382 23.7521 36.7395C23.7311 36.7472 23.71 36.7538 23.69 36.7615C23.6811 36.7642 23.6712 36.768 23.6623 36.7707C23.657 36.7541 23.6462 36.7399 23.6322 36.7304L23.6645 36.7221C23.6946 36.7376 23.7303 36.7303 23.7563 36.7077C23.7628 36.7029 23.7693 36.697 23.7747 36.6911C23.8395 36.679 23.9054 36.668 23.9704 36.6582C24.0118 36.6518 24.0454 36.6232 24.0444 36.5781C24.0442 36.5748 24.0429 36.5715 24.0416 36.567C24.0493 36.5621 24.0581 36.5572 24.0657 36.5524C24.0496 36.57 24.0437 36.5883 24.0457 36.6063C24.0136 36.6664 23.9745 36.7223 23.9307 36.7739L23.9318 36.7728ZM23.8077 36.8924C23.8077 36.8924 23.7992 36.9018 23.796 36.9065C23.7924 36.901 23.7877 36.8967 23.7829 36.8924C23.7952 36.8885 23.8085 36.8845 23.8218 36.8805C23.8175 36.8841 23.8132 36.8888 23.8077 36.8924ZM24.2924 38.0261C24.2939 38.0328 24.2964 38.0383 24.2989 38.0438C24.2933 38.0441 24.2887 38.0432 24.2831 38.0435C24.2873 38.0376 24.2893 38.0319 24.2924 38.0261ZM22.8166 37.8945C22.8166 37.8945 22.8327 37.9016 22.8338 37.9016C23.0069 37.8924 23.1607 37.9021 23.3045 38.0126C23.4319 38.1103 23.4931 38.2145 23.5783 38.3492C23.5808 38.3536 23.5939 38.3687 23.5963 38.3731C23.587 38.3893 23.5799 38.384 23.59 38.4061C23.6307 38.5056 23.6068 38.5732 23.6028 38.6794C23.6028 38.6794 23.6125 38.6947 23.6114 38.6959C23.5911 38.7915 23.5836 38.8234 23.5379 38.9067C23.5358 38.9102 23.516 38.9201 23.5139 38.9247C23.4837 38.978 23.4509 38.9987 23.4114 39.0456C23.2935 39.1266 23.1908 39.1979 23.045 39.2126C22.7477 39.2412 22.485 39.1667 22.3287 38.9091C22.2443 38.7688 22.2015 38.6006 22.2153 38.4366C22.2214 38.4239 22.2242 38.4102 22.2223 38.3945C22.3014 38.3514 22.2343 38.2407 22.1541 38.2614C22.0293 38.1714 21.9013 38.085 21.7712 38.0031C21.7526 37.9916 21.7334 37.9902 21.7168 37.9955C21.6922 37.9775 21.6666 37.9596 21.642 37.9404C21.6233 37.9255 21.6007 37.9232 21.5794 37.9253C21.5431 37.8977 21.5047 37.8724 21.4695 37.8425C21.4543 37.8297 21.4349 37.825 21.4169 37.8258C21.3948 37.81 21.3653 37.8057 21.3346 37.8252C21.2886 37.8544 21.2351 37.8659 21.1831 37.8627C21.1292 37.8438 21.0795 37.8168 21.0329 37.7841C21.0209 37.7688 21.0089 37.7525 20.9979 37.735C20.9785 37.6807 20.9699 37.6191 20.9664 37.5685C20.9975 37.5096 21.0274 37.4507 21.0585 37.3918C21.083 37.385 21.1075 37.3793 21.132 37.3726C21.1576 37.3657 21.1735 37.3447 21.1813 37.3195C21.2028 37.3208 21.2243 37.322 21.246 37.3278C21.271 37.3334 21.3033 37.3251 21.3204 37.3051C21.478 37.1084 21.6346 36.9129 21.7922 36.7162C21.8263 36.674 21.8106 36.6274 21.779 36.6041C21.7772 36.5636 21.7651 36.5236 21.7576 36.4822C21.7286 36.3201 21.8332 36.1721 21.9402 36.0499C21.9478 36.0428 22.0642 35.9776 22.0706 35.9705C22.2011 35.9408 22.2555 35.9461 22.3549 35.9516C22.3663 35.9533 22.3787 35.9539 22.392 35.9499C22.392 35.9499 22.3931 35.9498 22.3943 35.9498C22.4002 35.9562 22.4073 35.9627 22.4165 35.9668C22.4441 35.979 22.4728 35.99 22.5004 36.0023C22.5165 36.0094 22.5346 36.0097 22.5513 36.0067C22.6904 36.0892 22.7292 36.3162 22.7213 36.4608C22.7141 36.5941 22.6604 36.7251 22.5679 36.8185C22.4604 36.881 22.3308 36.9062 22.2089 36.8793C22.1782 36.8728 22.1484 36.8855 22.1304 36.91C22.105 36.8988 22.0746 36.8979 22.0495 36.916C22.0395 36.9199 22.0297 36.9271 22.0211 36.9365C22.0115 36.9482 22.0019 36.9599 21.9924 36.9717C21.8579 37.1098 21.7365 37.2598 21.629 37.4203C21.6197 37.414 21.6104 37.4077 21.6 37.4025C21.54 37.3738 21.4849 37.4237 21.4874 37.4765C21.4716 37.5246 21.5114 37.5813 21.5643 37.5789C21.5716 37.5898 21.5788 37.5996 21.5904 37.6081C21.6242 37.6302 21.6654 37.644 21.7 37.6616C21.7728 37.6987 21.8445 37.7382 21.9141 37.78C22.0544 37.8637 22.1894 37.9565 22.3171 38.0587C22.378 38.1077 22.4828 38.1085 22.4745 38.0503C22.5858 37.9718 22.685 37.9243 22.8165 37.8934L22.8166 37.8945ZM24.3683 38.1533C24.384 38.201 24.3976 38.25 24.4066 38.2992C24.4045 38.3015 24.4023 38.3039 24.4002 38.3073C24.3923 38.3066 24.3845 38.3081 24.3755 38.3085C24.4061 38.2642 24.386 38.1953 24.337 38.1841C24.3435 38.1781 24.3489 38.1734 24.3554 38.1686C24.3609 38.1638 24.364 38.158 24.3671 38.1522L24.3683 38.1533ZM22.8051 35.5293C22.8051 35.5293 22.8164 35.5288 22.822 35.5285C22.8164 35.5288 22.8108 35.5291 22.8041 35.5305C22.8041 35.5305 22.8041 35.5305 22.804 35.5294L22.8051 35.5293ZM23.9444 36.4171C23.943 36.4116 23.9405 36.4061 23.938 36.4005C23.9581 36.3962 23.9805 36.394 24.0007 36.3908C24.002 36.3942 24.0054 36.3963 24.0079 36.3995C23.9867 36.405 23.9655 36.4105 23.9444 36.4171ZM20.4057 36.6153C20.4269 36.6109 20.4481 36.6066 20.4693 36.6022C20.5229 36.5907 20.5764 36.5791 20.6299 36.5665C20.7303 36.5438 20.8295 36.52 20.9299 36.4984C21.0906 36.4627 21.2515 36.4337 21.4143 36.4194C21.4143 36.4194 21.4143 36.4194 21.4154 36.4193C21.3975 36.4235 21.3797 36.4277 21.363 36.4319C21.2994 36.445 21.2369 36.4581 21.1732 36.4701C20.9197 36.5214 20.6663 36.5738 20.4129 36.6251C20.4106 36.6252 20.4096 36.6275 20.4074 36.6276C20.4072 36.6231 20.4069 36.6175 20.4067 36.613L20.4057 36.6153ZM20.3499 36.0262C20.3499 36.0262 20.3498 36.024 20.3497 36.0217C20.3497 36.0217 20.352 36.0216 20.352 36.0227C20.351 36.025 20.3501 36.0285 20.349 36.0308C20.3489 36.0285 20.3489 36.0274 20.3488 36.0251L20.3499 36.0262ZM20.6868 36.024C20.6306 36.0266 20.5701 36.0351 20.5127 36.0366C20.5104 36.0345 20.507 36.0335 20.5046 36.0314C20.6976 36.0133 20.8906 35.9953 21.0825 35.9773C21.0065 35.9899 20.9315 36.0013 20.8554 36.0138C20.7992 36.0165 20.743 36.0202 20.6868 36.024ZM23.3387 35.9496C23.4282 35.9341 23.5177 35.9198 23.6073 35.9077C23.6084 35.9076 23.6096 35.9098 23.6119 35.9097C23.52 35.9208 23.4293 35.934 23.3387 35.9496ZM23.5143 35.6055C23.5146 35.6134 23.515 35.6212 23.5165 35.629C23.5191 35.6368 23.5227 35.6423 23.5275 35.6477C23.4338 35.6679 23.34 35.6869 23.2463 35.7071C23.1529 35.7114 23.0596 35.7169 22.9653 35.7247C22.9694 35.7155 22.9723 35.7052 22.974 35.6939C23.1538 35.6573 23.3339 35.6286 23.5154 35.6054L23.5143 35.6055ZM20.5799 35.8103C20.5872 35.8224 20.5978 35.832 20.6127 35.837C20.529 35.8533 20.4452 35.8696 20.3626 35.887C20.3603 35.8871 20.3593 35.8883 20.3571 35.8895C20.3583 35.868 20.3595 35.8454 20.3608 35.8239C20.3676 35.8259 20.3744 35.8267 20.3823 35.8263C20.4486 35.821 20.5137 35.8157 20.5799 35.8103ZM20.4124 36.0357C20.4004 36.0441 20.3885 36.0548 20.3835 36.0686C20.3795 36.0789 20.3766 36.0903 20.376 36.1016C20.376 36.1016 20.3738 36.1017 20.3726 36.1018C20.371 36.0669 20.3694 36.0332 20.3667 35.9984C20.3754 36.016 20.3918 36.0299 20.4124 36.0357ZM20.8638 36.169L20.8728 36.1686C20.8841 36.168 20.8964 36.1675 20.9077 36.1669C20.7344 36.1976 20.56 36.2283 20.3867 36.2578C20.3856 36.2578 20.3845 36.2579 20.3833 36.2579L20.3832 36.2557C20.5429 36.2246 20.7039 36.1956 20.8638 36.169ZM20.3939 36.4119C20.7494 36.3502 21.1049 36.2873 21.4604 36.2256C21.4721 36.2352 21.4882 36.2401 21.504 36.2416C21.5021 36.2485 21.499 36.2542 21.497 36.2611C21.235 36.2745 20.9784 36.3293 20.7231 36.3886C20.6149 36.4139 20.5067 36.4381 20.3973 36.4602C20.3966 36.4444 20.3958 36.4287 20.3951 36.4129L20.3939 36.4119ZM20.4151 36.7693C20.4289 36.7743 20.4425 36.777 20.4593 36.774C20.552 36.755 20.6446 36.736 20.7373 36.717C20.6304 36.7446 20.5235 36.7732 20.4168 36.8053C20.4162 36.7929 20.4157 36.7816 20.4151 36.7693ZM22.7033 35.906C22.7059 35.9138 22.7108 35.9214 22.7156 35.928C22.7089 35.9305 22.7023 35.9331 22.6968 35.9367C22.6874 35.927 22.6768 35.9185 22.6663 35.91C22.6787 35.9094 22.6909 35.9066 22.7032 35.9049L22.7033 35.906ZM22.228 37.0463C22.228 37.0463 22.2302 37.0439 22.2301 37.0417C22.2334 37.0415 22.2368 37.0414 22.2391 37.0424C22.2346 37.0426 22.2313 37.0439 22.2268 37.0452L22.228 37.0463ZM23.7506 36.3699C23.7506 36.3699 23.7508 36.3732 23.7508 36.3744C23.6203 36.4019 23.4885 36.4283 23.3579 36.4558C23.4884 36.4261 23.6189 36.3974 23.7495 36.3699L23.7506 36.3699ZM22.9389 35.5445C22.9317 35.5358 22.9235 35.5294 22.912 35.5254C22.9671 35.5229 23.0222 35.5203 23.0774 35.5177C23.0304 35.5267 22.9846 35.5344 22.9377 35.5445L22.9389 35.5445ZM22.4803 35.5727C22.3102 35.5975 22.1402 35.6269 21.9704 35.6596C21.9662 35.6418 21.9541 35.6243 21.9343 35.6106C21.9332 35.6107 21.932 35.6096 21.9309 35.6085C22.1138 35.591 22.2969 35.579 22.4803 35.5727ZM20.4265 36.9637C20.7944 36.853 21.1702 36.7678 21.5495 36.7095C21.5495 36.7095 21.5496 36.7106 21.5508 36.7117C21.5284 36.7386 21.5059 36.7645 21.4835 36.7915C21.4685 36.7843 21.4503 36.7795 21.429 36.7839C21.0953 36.8524 20.7615 36.921 20.4288 36.9895C20.4284 36.9805 20.428 36.9715 20.4275 36.9626L20.4265 36.9637ZM21.2577 36.9756C21.273 36.9895 21.2947 36.9964 21.3203 36.9896C21.3079 37.0138 21.3091 37.0397 21.3214 37.0605C21.298 37.0898 21.2756 37.1179 21.2522 37.1472C21.2523 37.1009 21.2116 37.051 21.1525 37.0639C20.9215 37.1142 20.6888 37.151 20.4532 37.1732C20.4476 37.1735 20.4443 37.1759 20.4398 37.1772C20.4393 37.166 20.4388 37.1548 20.4383 37.1446C20.7118 37.0879 20.9853 37.0323 21.2588 36.9755L21.2577 36.9756ZM23.766 39.1338C23.7572 39.1388 23.7495 39.1425 23.7407 39.1474C23.7458 39.1359 23.7521 39.1244 23.7572 39.114C23.7587 39.1207 23.7613 39.1284 23.766 39.1338ZM23.0778 39.4557C23.0538 39.4489 23.0309 39.441 23.0069 39.4331C23.0564 39.4319 23.1046 39.4274 23.1538 39.4183C23.1284 39.4296 23.1031 39.4432 23.0789 39.4556L23.0778 39.4557ZM21.4921 38.059C21.4819 38.0595 21.4708 38.0634 21.4608 38.065C21.4574 38.0651 21.4529 38.0653 21.4495 38.0644C21.447 38.06 21.4457 38.0555 21.4432 38.0511C21.4533 38.0507 21.4646 38.0501 21.4734 38.0452C21.4792 38.0495 21.4862 38.0536 21.4921 38.059ZM20.453 37.4336C20.4582 37.4503 20.4678 37.4611 20.4806 37.4695C20.4727 37.4699 20.4637 37.4703 20.4558 37.4707C20.4552 37.4583 20.4547 37.4459 20.454 37.4324L20.453 37.4336ZM22.0745 38.8737C22.0617 38.8642 22.0456 38.8581 22.0265 38.859C22.0231 38.8592 22.0186 38.8594 22.0153 38.8596C22.0315 38.8453 22.0477 38.8299 22.0651 38.8155C22.0682 38.8345 22.0714 38.8547 22.0745 38.8737ZM21.3661 38.4977C21.4327 38.4777 21.5266 38.4609 21.5911 38.4173C21.5895 38.4309 21.5923 38.4432 21.5974 38.4553C21.5203 38.4691 21.4431 38.4817 21.3671 38.4965L21.3661 38.4977ZM22.0505 38.433C22.0505 38.433 22.0506 38.4353 22.0507 38.4364C22.0447 38.4536 22.0377 38.4719 22.0318 38.4891C22.0288 38.4735 22.0225 38.4591 22.0118 38.4483C22.0216 38.4411 22.0325 38.4338 22.0424 38.4266C22.0458 38.4287 22.0482 38.4309 22.0517 38.4329L22.0505 38.433ZM20.653 37.493C20.653 37.493 20.6528 37.4885 20.6527 37.4863C20.6528 37.4885 20.6529 37.4908 20.653 37.493ZM20.7735 37.7804C20.7835 37.7777 20.7947 37.776 20.8047 37.7733C20.8088 37.7889 20.8152 37.8055 20.8216 37.821C20.8071 37.825 20.7937 37.8279 20.7793 37.832C20.7841 37.8149 20.7821 37.7969 20.7735 37.7804ZM20.4952 38.2397C20.4952 38.2397 20.494 38.2398 20.4929 38.2399L20.4928 38.2376C20.4928 38.2376 20.4939 38.2375 20.4951 38.2375L20.4952 38.2397ZM20.7478 38.1479C20.7497 38.1399 20.7505 38.132 20.7501 38.123C20.8657 38.0894 20.9841 38.0659 21.104 38.0524C20.9835 38.0783 20.8644 38.1098 20.7478 38.1479ZM20.6587 37.4713C20.6587 37.4713 20.6608 37.4667 20.6618 37.4644C20.6619 37.4667 20.6597 37.469 20.6587 37.4713ZM20.4831 38.0295C20.4934 38.0336 20.5048 38.0364 20.5183 38.0347C20.5194 38.0346 20.5216 38.0345 20.5228 38.0345C20.5106 38.0395 20.4973 38.0435 20.484 38.0487C20.4837 38.0419 20.4834 38.0363 20.4831 38.0295ZM20.5371 38.3888C20.5581 38.3799 20.5781 38.3734 20.5991 38.3656C20.8164 38.3115 21.0336 38.2574 21.2508 38.2022C21.258 38.2108 21.2673 38.2183 21.2788 38.2223C21.2911 38.2442 21.3132 38.2601 21.3457 38.2552C21.3513 38.2549 21.3569 38.2535 21.3625 38.2522C21.3626 38.2555 21.3627 38.2578 21.3629 38.2612C21.2678 38.2757 21.1739 38.2925 21.0801 38.3116C21.0801 38.3116 21.079 38.3116 21.0778 38.3117C21.0778 38.3117 21.0767 38.3117 21.0756 38.3118C20.8981 38.3483 20.7232 38.3925 20.5498 38.4446C20.5231 38.4526 20.5082 38.4713 20.5024 38.4919C20.5009 38.4593 20.4993 38.4255 20.4978 38.3929C20.5092 38.3946 20.5227 38.3951 20.5371 38.3888ZM20.5085 38.6685C20.6157 38.6241 20.7254 38.584 20.8353 38.5473C20.8329 38.57 20.8397 38.5933 20.854 38.6107C20.7381 38.6386 20.6234 38.6688 20.5088 38.7001C20.5083 38.69 20.5078 38.6787 20.5073 38.6686L20.5085 38.6685ZM21.3663 38.6949C21.3964 38.6879 21.4112 38.6669 21.4169 38.6441C21.476 38.6323 21.5342 38.6228 21.5934 38.6122C21.6007 38.622 21.61 38.6294 21.6226 38.6333C21.4388 38.6791 21.255 38.7249 21.0713 38.7741C21.1692 38.7458 21.2681 38.7175 21.3673 38.6937L21.3663 38.6949ZM22.1691 39.1375C22.1641 39.1028 22.1391 39.0724 22.0984 39.0709C22.0904 39.0443 22.0726 39.0259 22.0497 39.018C22.0573 39.012 22.065 39.0071 22.0737 39.0011C22.0868 38.9915 22.0953 38.9798 22.1003 38.9672C22.1202 39.0316 22.1489 39.0911 22.1908 39.1433C22.185 39.1401 22.1782 39.1382 22.1703 39.1375L22.1691 39.1375ZM21.2891 38.0336L21.2668 38.0391C21.2668 38.0391 21.2657 38.038 21.2645 38.037C21.2724 38.0366 21.2789 38.0329 21.2856 38.0315C21.2856 38.0315 21.2879 38.0314 21.2891 38.0324L21.2891 38.0336ZM21.1576 38.0408C21.1576 38.0408 21.1654 38.0382 21.1686 38.0358C21.1709 38.0357 21.1731 38.0356 21.1743 38.0367C21.1687 38.0369 21.1632 38.0394 21.1575 38.0397L21.1576 38.0408ZM20.4754 37.6253C20.4794 37.6386 20.4868 37.6507 20.4963 37.6615C20.4839 37.6621 20.474 37.6659 20.4664 37.6719C20.4657 37.6573 20.4649 37.6416 20.4643 37.6269C20.4676 37.6268 20.4721 37.6266 20.4755 37.6264L20.4754 37.6253ZM22.2647 39.2536C22.2436 39.2591 22.2236 39.2646 22.2023 39.2678C22.2226 39.2443 22.231 39.2068 22.2206 39.1779C22.2478 39.2048 22.276 39.2294 22.3076 39.2539C22.295 39.25 22.2814 39.2483 22.2659 39.2536L22.2647 39.2536ZM20.5025 37.3355C20.4734 37.3414 20.4556 37.3692 20.4513 37.3987C20.4502 37.3751 20.4491 37.3504 20.448 37.3268C20.4525 37.3266 20.4548 37.3287 20.4593 37.3285C20.5379 37.3214 20.6163 37.311 20.6947 37.3006C20.631 37.3126 20.5673 37.3234 20.5036 37.3354L20.5025 37.3355ZM21.2831 39.206C21.3731 39.1792 21.3705 39.1704 21.4605 39.1436C21.5038 39.1303 21.5472 39.1181 21.5906 39.1048C21.6117 39.0982 21.6339 39.0915 21.655 39.086L21.6817 39.078C21.6928 39.0989 21.7116 39.1149 21.7376 39.116C21.7378 39.1205 21.7414 39.1248 21.7439 39.1292C21.5134 39.1659 21.3783 39.1925 21.1521 39.2482C21.1965 39.2348 21.2398 39.2204 21.2843 39.2071L21.2831 39.206ZM22.3335 39.3733C22.3335 39.3733 22.3323 39.3733 22.3312 39.3734C22.3764 39.3521 22.3726 39.3196 22.3484 39.2835C22.4044 39.3237 22.4705 39.3387 22.5295 39.372C22.4628 39.3672 22.3931 39.3705 22.3335 39.3733ZM20.6303 39.0336C20.7699 39.0046 20.7991 39.0753 20.9399 39.0496C20.8428 39.0699 20.8561 38.9927 20.759 39.013C20.6909 39.0274 20.6945 39.1039 20.7368 39.1414C20.7268 39.1441 20.7168 39.1479 20.7068 39.1507C20.6302 39.1745 20.6472 39.2741 20.7057 39.2961C20.6824 39.3028 20.659 39.3096 20.6368 39.3174C20.6358 39.2227 20.6336 39.1282 20.6315 39.0336L20.6303 39.0336ZM21.9195 39.2935C21.8879 39.3175 21.8874 39.3299 21.8965 39.3576C21.8923 39.3635 21.8892 39.3693 21.8873 39.3761C21.8828 39.3763 21.8794 39.3765 21.8749 39.3767C21.867 39.3771 21.8615 39.3796 21.8548 39.381C21.8634 39.3468 21.8376 39.3266 21.803 39.309C21.8422 39.3038 21.8802 39.2975 21.9194 39.2923L21.9195 39.2935ZM23.8261 38.3703C23.8261 38.3703 23.8273 38.3702 23.8284 38.3702C23.8284 38.3702 23.8284 38.3702 23.8273 38.3702L23.8261 38.3703ZM22.3913 37.2122C22.3913 37.2122 22.3909 37.2032 22.3907 37.1999C22.3867 37.1865 22.3795 37.1767 22.3713 37.1692C22.3847 37.1663 22.397 37.1646 22.4104 37.1617C22.4241 37.1667 22.4389 37.1694 22.4567 37.1641C22.7304 37.0893 23.0055 37.0178 23.2806 36.9475C23.2808 36.952 23.281 36.9565 23.2823 36.9609C22.9853 37.0447 22.6883 37.1273 22.3924 37.211L22.3913 37.2122ZM23.4256 36.6015C23.4044 36.6058 23.3925 36.6165 23.3841 36.6304C23.2081 36.6736 23.032 36.7168 22.8559 36.7588C22.8675 36.7425 22.8791 36.7251 22.8884 36.7066C22.8929 36.7064 22.8963 36.7074 22.9007 36.706C23.124 36.6595 23.3473 36.6141 23.5705 36.5676C23.5706 36.5687 23.5706 36.5699 23.5707 36.571C23.5227 36.5811 23.4735 36.5902 23.4255 36.6003L23.4256 36.6015ZM20.6434 39.4568C20.6434 39.4568 20.6545 39.454 20.6589 39.4516C20.6691 39.4522 20.6793 39.4529 20.6904 39.4501C21.0007 39.3623 21.1969 39.4106 21.5144 39.3552C21.2321 39.418 21.0674 39.3649 20.7851 39.4276C20.7372 39.4389 20.7245 39.4801 20.7363 39.5156C20.7119 39.5235 20.6863 39.5314 20.6619 39.5405C20.6542 39.5431 20.6488 39.5479 20.6433 39.5515C20.6429 39.52 20.6437 39.4884 20.6434 39.4568ZM23.8072 38.2314C23.7931 38.2422 23.7847 38.2561 23.7809 38.2709C23.7698 38.25 23.7575 38.2292 23.7442 38.2095C23.7297 38.1877 23.7151 38.1658 23.7005 38.1428C23.7028 38.1427 23.7039 38.1427 23.7062 38.1426C23.7117 38.14 23.7172 38.1387 23.7228 38.1362C23.7204 38.1825 23.7598 38.2291 23.8212 38.2161C23.8234 38.216 23.8268 38.2158 23.829 38.2146C23.8214 38.2206 23.8149 38.2265 23.8072 38.2314ZM23.6587 37.9949C23.6399 38.0025 23.6281 38.0155 23.6198 38.0305C23.603 38.0088 23.5873 37.9869 23.5694 37.9664C23.5816 37.9613 23.5949 37.9573 23.6071 37.9522C23.6171 37.9732 23.6359 37.9892 23.6576 37.9949L23.6587 37.9949ZM22.5485 37.7526C22.5522 37.7367 22.5514 37.7198 22.5462 37.7043C22.7272 37.671 22.9081 37.6355 23.0877 37.5955C23.098 37.6221 23.1215 37.6424 23.1584 37.6373C23.2021 37.6319 23.2458 37.6254 23.2894 37.6188C23.2698 37.6321 23.2501 37.6443 23.2304 37.6576C22.9999 37.6222 22.7603 37.6548 22.5485 37.7526ZM24.1207 36.1857C24.1207 36.1857 24.1207 36.1857 24.1208 36.1869L24.1207 36.1857ZM20.2827 37.1429C20.3147 37.7072 20.3434 38.2716 20.3585 38.8367C20.3671 39.1643 20.548 39.2967 20.5464 39.6248C20.5384 39.6218 20.5385 39.6251 20.5295 39.6256C20.4515 38.8977 20.3277 38.0334 20.2815 37.1418L20.2827 37.1429ZM20.6372 39.6386C20.6465 39.6449 20.657 39.6512 20.6694 39.6517C20.6593 39.6522 20.6481 39.655 20.638 39.6554C20.6377 39.6498 20.6375 39.6442 20.6372 39.6374L20.6372 39.6386ZM20.7018 39.6468C20.7273 39.6377 20.7529 39.6298 20.7795 39.6206C20.781 39.6273 20.7846 39.6339 20.7872 39.6394C20.7546 39.6421 20.7209 39.6448 20.6884 39.6486C20.6929 39.6484 20.6974 39.6481 20.703 39.6468L20.7018 39.6468ZM22.7375 39.6012C22.7488 39.6029 22.7929 39.6054 22.8201 39.6097C22.7898 39.6112 22.7583 39.6126 22.7279 39.6141C22.7311 39.6105 22.7343 39.6059 22.7375 39.6012ZM24.0915 36.0676C24.0962 36.0483 24.093 36.027 24.0831 36.0072C24.0806 36.0028 24.077 35.9984 24.0745 35.994C24.0833 35.9891 24.0909 35.982 24.0961 35.9739C24.1023 36.0096 24.1074 36.0455 24.1113 36.0802C24.1054 36.0749 24.0984 36.0707 24.0915 36.0676ZM24.0602 35.855C24.0602 35.855 24.0598 35.8471 24.0607 35.8425C24.062 35.847 24.0634 35.8514 24.0647 35.8559C24.0636 35.8559 24.0613 35.856 24.0602 35.855ZM24.0044 35.7708C23.9748 35.7643 23.9453 35.76 23.9158 35.7569C23.9144 35.7513 23.913 35.7446 23.9093 35.7392C23.9093 35.7392 23.9082 35.7381 23.907 35.737C23.9399 35.7186 23.9525 35.674 23.9396 35.6386C23.9416 35.6328 23.9424 35.6272 23.9432 35.6204C23.9841 35.6737 24.0172 35.7307 24.0438 35.7937C24.0342 35.7829 24.0226 35.7744 24.0044 35.7708ZM23.8423 35.5349C23.826 35.4996 23.7882 35.4856 23.7502 35.493C23.7434 35.4933 23.7368 35.4959 23.7312 35.4973C23.7334 35.4949 23.7356 35.4937 23.7377 35.4913C23.7506 35.4783 23.7578 35.4622 23.7582 35.4476C23.7838 35.4655 23.8094 35.4823 23.834 35.5026C23.8458 35.5122 23.8542 35.5231 23.8648 35.5327C23.858 35.533 23.8501 35.5334 23.8434 35.5337L23.8423 35.5349ZM23.6099 35.3609C23.5953 35.3616 23.5805 35.3601 23.5659 35.3607C23.5621 35.3519 23.5584 35.3442 23.5513 35.3378C23.5709 35.3459 23.5904 35.3528 23.6099 35.3621L23.6099 35.3609ZM22.0742 35.3956C22.0609 35.4007 22.0522 35.4079 22.0447 35.4161C22.0444 35.4094 22.0418 35.4016 22.0393 35.3961C22.0404 35.396 22.0426 35.3959 22.0438 35.3959C22.0539 35.3954 22.064 35.3949 22.0731 35.3956L22.0742 35.3956ZM23.9175 37.5522C23.9175 37.5522 23.913 37.5536 23.9108 37.5548C23.9091 37.5414 23.9017 37.5282 23.8933 37.5162C23.9128 37.5243 23.9313 37.5336 23.9509 37.5428C23.9396 37.5433 23.9285 37.5461 23.9175 37.5522ZM23.8119 37.4884C23.7764 37.5002 23.7397 37.511 23.7042 37.5228C23.7156 37.5008 23.7145 37.4772 23.7034 37.4563C23.742 37.4635 23.7808 37.4741 23.8186 37.487C23.8164 37.4871 23.8141 37.4872 23.8119 37.4873L23.8119 37.4884ZM23.6321 37.09C23.6321 37.09 23.6272 37.0812 23.6248 37.0768C23.6314 37.0742 23.638 37.0716 23.6436 37.0691C23.6594 37.0695 23.6749 37.0654 23.6879 37.0524C23.7056 37.0459 23.7221 37.0384 23.7399 37.0319C23.705 37.0584 23.6702 37.0848 23.6342 37.109C23.6338 37.1023 23.6335 37.0955 23.6321 37.09ZM20.8949 35.4349C20.7278 35.4529 20.5474 35.5729 20.3805 35.5942C20.3812 35.5852 20.3818 35.575 20.3825 35.566C20.5499 35.5548 20.7307 35.4437 20.8982 35.4336C20.897 35.4337 20.8959 35.4338 20.8948 35.4338L20.8949 35.4349ZM23.5445 39.6514C23.5445 39.6514 23.5502 39.6522 23.5535 39.651C23.5603 39.6506 23.5669 39.6481 23.5736 39.6466C23.5736 39.6466 23.5792 39.6464 23.5814 39.6452C23.6518 39.6317 23.7197 39.6128 23.7849 39.586C23.7853 39.5939 23.7868 39.6029 23.7905 39.6094C23.7093 39.6313 23.6267 39.6487 23.5439 39.6616C23.5437 39.6582 23.5447 39.6548 23.5456 39.6502L23.5445 39.6514ZM24.1609 37.6716C24.1487 37.6755 24.1365 37.6795 24.1243 37.6846C24.1102 37.6492 24.0751 37.6204 24.0318 37.6348C24.0366 37.6165 24.0334 37.5975 24.0237 37.5822C24.0272 37.5843 24.0295 37.5853 24.033 37.5874C24.0758 37.6125 24.1189 37.6409 24.1609 37.6716ZM22.5608 35.2218C22.5251 35.228 22.4893 35.2353 22.4547 35.2425C22.3361 35.2357 22.2178 35.2367 22.0997 35.2422C21.6668 35.241 21.2338 35.2602 20.8011 35.286C21.3864 35.2451 21.9737 35.2233 22.5608 35.2218ZM21.7009 39.777C21.8143 39.7672 21.9277 39.7585 22.0412 39.751C22.0414 39.7555 22.0416 39.76 22.0441 39.7644C21.9293 39.7697 21.8156 39.7728 21.7009 39.7782L21.7009 39.777Z" fill="#EC0047"/>
        <path d="M21.1173 7.92449C17.5553 8.35089 12.7729 9.39191 10.3716 10.7097C7.23312 12.433 6.01444 15.1831 6.19628 18.6554C6.2955 20.5531 6.55893 22.1188 7.11492 23.9423C8.39806 28.1532 11.6584 30.2232 16.0319 29.8412C20.9505 29.4116 25.3476 28.6709 30.1381 27.4795C34.5982 26.3696 36.1022 22.494 35.6453 18.4937C35.2292 14.8482 34.6143 10.7362 31.1811 8.89487C28.2716 7.33466 24.5988 7.50789 21.1175 7.9256L21.1173 7.92449Z" fill="#E8E8E8"/>
        <path d="M21.0196 7.00363C19.5401 7.18126 18.0691 7.43049 16.6118 7.74139C15.149 8.05314 13.6917 8.42439 12.2777 8.91666C11.068 9.33727 9.89781 9.86922 8.87411 10.649C7.8504 11.4288 7.0377 12.416 6.49462 13.5687C5.95153 14.7215 5.72505 15.9509 5.69591 17.1905C5.65472 18.8656 5.87251 20.5748 6.26359 22.2021C6.60528 23.6217 7.05335 24.9992 7.8529 26.2305C8.48827 27.2099 9.3423 28.0608 10.3447 28.664C11.3833 29.288 12.544 29.6637 13.745 29.8079C15.2938 29.9932 16.8668 29.7708 18.4064 29.599C22.0107 29.197 25.5841 28.5662 29.1128 27.7281C29.8899 27.5432 30.6759 27.3717 31.419 27.0735C32.0256 26.8299 32.6058 26.5083 33.1301 26.1177C34.1062 25.3929 34.8659 24.4091 35.3673 23.3047C35.8687 22.2003 36.1015 21.0132 36.1439 19.824C36.1914 18.494 35.9998 17.1567 35.7939 15.8453C35.3733 13.1796 34.5538 10.3437 32.3147 8.63054C31.1123 7.71125 29.6168 7.20593 28.1409 6.94473C26.5574 6.66438 24.9316 6.67156 23.3314 6.78079C22.5582 6.83306 21.7882 6.91333 21.0198 7.00474C20.7805 7.03382 20.5866 7.28947 20.6327 7.52845C20.6818 7.77952 20.9003 7.94595 21.1565 7.91548C21.9416 7.82157 22.7287 7.74101 23.5177 7.68863C23.9111 7.6626 24.3055 7.64326 24.6992 7.63427C24.7479 7.63265 24.7979 7.63198 24.8468 7.63147C24.7605 7.63304 24.9218 7.63047 24.9196 7.6308C25.0014 7.6299 25.0821 7.62918 25.1641 7.62939C25.3748 7.62966 25.5859 7.63326 25.7974 7.63909C26.5456 7.66342 27.2933 7.72995 28.0313 7.86055C28.2161 7.89316 28.4004 7.93039 28.583 7.97129C28.6584 7.98843 28.734 8.00669 28.8107 8.02477C28.9595 8.0605 28.7287 8.00179 28.8758 8.04119C28.9363 8.05717 28.9956 8.0733 29.0551 8.09056C29.4117 8.19074 29.7619 8.30895 30.1048 8.4476C30.2612 8.51066 30.417 8.57835 30.5702 8.65099C30.6536 8.69084 30.737 8.73069 30.8197 8.77294C30.8604 8.79415 30.9023 8.81519 30.943 8.83639C30.9566 8.84346 31.1081 8.92773 31.0333 8.88432C31.3136 9.0449 31.5819 9.22436 31.8359 9.42303C31.9639 9.5245 32.089 9.62982 32.2092 9.74043C32.2395 9.76776 32.2686 9.79526 32.2978 9.82276C32.234 9.76175 32.298 9.82387 32.314 9.83968C32.3756 9.90102 32.4362 9.96365 32.4959 10.0276C32.7131 10.2613 32.9133 10.5102 33.097 10.7707C33.1809 10.8902 33.2608 11.0125 33.3385 11.1363C33.2819 11.0469 33.3522 11.1593 33.3596 11.1707C33.3796 11.2053 33.4007 11.2397 33.4196 11.2744C33.4659 11.3551 33.5112 11.4371 33.5554 11.5193C33.7076 11.805 33.8426 12.0978 33.9649 12.3971C34.0872 12.6963 34.1896 12.9838 34.2847 13.2837C34.3102 13.363 34.3345 13.4413 34.3578 13.5209C34.3621 13.534 34.4001 13.666 34.3696 13.5613C34.3813 13.6017 34.3918 13.6411 34.4036 13.6814C34.4482 13.8421 34.4896 14.0044 34.5297 14.1657C34.8452 15.456 35.0152 16.7784 35.164 18.0961C35.1981 18.3995 35.2222 18.7044 35.234 19.01C35.2374 19.0858 35.2385 19.1619 35.2407 19.2367C35.2387 19.1174 35.2407 19.2446 35.2402 19.2641C35.2404 19.2959 35.2405 19.3266 35.2407 19.3585C35.2402 19.5145 35.2364 19.6711 35.2289 19.8259C35.2022 20.3991 35.1298 20.9712 35.0032 21.531C34.9875 21.6005 34.9708 21.6713 34.9528 21.7412C34.9813 21.6276 34.9512 21.746 34.946 21.7639C34.9363 21.7983 34.9267 21.8328 34.9171 21.8672C34.8784 22.004 34.8351 22.1403 34.7892 22.2746C34.6983 22.541 34.592 22.804 34.472 23.0588C34.4178 23.1751 34.3598 23.2897 34.2982 23.4025C34.2894 23.4198 34.2298 23.5232 34.2875 23.4224C34.2704 23.4523 34.2534 23.4833 34.2351 23.5133C34.1944 23.5832 34.1514 23.6534 34.1083 23.7225C33.9582 23.959 33.7931 24.1865 33.615 24.4033C33.5322 24.5034 33.4477 24.6003 33.3593 24.6944C33.3467 24.7088 33.2626 24.7932 33.3426 24.7117C33.3179 24.7371 33.2932 24.7624 33.2675 24.7879C33.217 24.8387 33.1651 24.8875 33.1133 24.9363C32.9005 25.1344 32.6743 25.3186 32.4365 25.4864C32.3151 25.5729 32.1898 25.6555 32.0626 25.7337C32.1471 25.6823 32.072 25.7278 32.051 25.74C32.0238 25.7555 31.9967 25.7721 31.9683 25.7877C31.8907 25.8324 31.8117 25.875 31.7315 25.9166C31.4484 26.0638 31.1559 26.1931 30.8574 26.3051C30.714 26.3585 30.5688 26.4076 30.4231 26.4534C30.3829 26.4662 30.3414 26.4782 30.3011 26.4899C30.4013 26.4601 30.2639 26.5 30.254 26.5027C30.1469 26.5324 30.0382 26.559 29.9306 26.5854C29.5026 26.6917 29.074 26.7947 28.6452 26.8955C27.7676 27.1012 26.8879 27.2936 26.0043 27.474C24.2876 27.8238 22.5609 28.1217 20.825 28.3662C19.9387 28.4913 19.0502 28.6019 18.1599 28.7002C17.2696 28.7985 16.4606 28.8926 15.6088 28.9441C15.4474 28.9536 15.2868 28.9606 15.1256 28.9632C15.2391 28.9609 15.1061 28.9627 15.0902 28.9628C15.0641 28.9633 15.0378 28.9627 15.0117 28.9632C14.9207 28.9632 14.8281 28.9611 14.7367 28.9589C14.4314 28.9501 14.1252 28.9277 13.8225 28.89C13.5197 28.8524 13.2391 28.8034 12.9504 28.7386C12.8916 28.7258 12.8335 28.7106 12.7745 28.6967C12.6563 28.6677 12.8683 28.7224 12.7508 28.69C12.7163 28.6804 12.6818 28.6707 12.6474 28.6611C12.5106 28.6224 12.3745 28.5802 12.2403 28.5355C11.9752 28.4455 11.7159 28.341 11.4625 28.223C11.3376 28.1643 11.2133 28.1022 11.092 28.0373C11.0746 28.0274 10.9715 27.97 11.0736 28.0286C11.0536 28.0168 11.0338 28.0062 11.0138 27.9944C10.9441 27.9547 10.8752 27.9127 10.8074 27.8705C10.5739 27.7257 10.3486 27.5671 10.134 27.3966C10.0346 27.3182 9.93818 27.237 9.84365 27.1533C9.79126 27.1077 9.74093 27.0606 9.68949 27.0137C9.6749 26.9999 9.59072 26.9169 9.67362 26.999C9.64027 26.9664 9.60693 26.9338 9.57469 26.9011C9.18164 26.5047 8.83412 26.0628 8.53353 25.5922C8.51404 25.5609 8.49455 25.5297 8.47507 25.4985C8.53514 25.5953 8.46911 25.4891 8.46104 25.4733C8.42301 25.4095 8.38593 25.3445 8.34885 25.2795C8.27435 25.1472 8.20431 25.0143 8.13728 24.8786C7.99853 24.5989 7.87359 24.3125 7.7615 24.0208C7.19652 22.5471 6.87831 20.935 6.71787 19.3425C6.67436 18.9084 6.64199 18.4727 6.62203 18.0363C6.61863 17.9605 6.61522 17.8847 6.61388 17.8075C6.61332 17.7734 6.6126 17.7383 6.61093 17.7044C6.61377 17.8144 6.61042 17.6782 6.61048 17.6634C6.60924 17.4883 6.61151 17.3138 6.61823 17.1386C6.64168 16.5362 6.71418 15.9345 6.85014 15.346C6.85832 15.3095 6.86778 15.2739 6.87596 15.2374C6.9044 15.1159 6.85002 15.3301 6.88308 15.209C6.902 15.1379 6.92204 15.0666 6.94224 14.9964C6.98376 14.8558 7.02896 14.7169 7.07766 14.5787C7.17445 14.3058 7.28799 14.0383 7.4164 13.7788C7.44357 13.7246 7.4709 13.6716 7.49823 13.6185C7.51504 13.5864 7.53201 13.5554 7.54994 13.5231C7.60777 13.4154 7.50068 13.6045 7.56346 13.4994C7.63961 13.3696 7.71704 13.2407 7.80053 13.1143C7.95823 12.8755 8.13112 12.6469 8.31682 12.4278C8.3653 12.3716 8.41378 12.3153 8.46355 12.26C8.48899 12.2323 8.51331 12.2048 8.53892 12.1781C8.54966 12.1663 8.63756 12.0768 8.5604 12.1544C8.66712 12.0462 8.77527 11.94 8.88744 11.8378C9.11873 11.6266 9.36221 11.4284 9.61694 11.2445C9.73813 11.1569 9.86093 11.0724 9.98535 10.9911C10.0548 10.9454 10.1243 10.9008 10.1954 10.8583C10.1099 10.9109 10.2288 10.8385 10.2372 10.8338C10.2864 10.8048 10.3346 10.777 10.3838 10.748C10.6238 10.6107 10.8691 10.4851 11.1192 10.369C11.6758 10.1101 12.2511 9.89288 12.833 9.69627C13.1602 9.58569 13.4884 9.48178 13.8198 9.38423C13.8624 9.37214 13.9049 9.35895 13.9474 9.34686C13.8515 9.37493 13.9932 9.33317 14.001 9.332C14.073 9.31095 14.1451 9.29101 14.2173 9.27108C14.4073 9.21751 14.5988 9.166 14.7905 9.11561C16.2277 8.73941 17.6856 8.44091 19.1512 8.20049C19.819 8.09116 20.4888 7.99519 21.1607 7.9137C21.4 7.88462 21.5941 7.63009 21.5478 7.38999C21.5015 7.14989 21.2802 6.97249 21.0241 7.00296L21.0196 7.00363Z" fill="#1E1E1E"/>
        <path d="M9.68986 19.7101C10.0297 23.2566 12.366 25.7612 15.9689 25.6987C18.8587 25.6486 22.5266 24.9263 25.3795 24.4708C27.7376 24.0942 29.9036 23.1122 31.01 21.4195C31.7552 20.2785 32.258 18.3565 32.0003 16.6317C31.2621 11.6901 27.038 10.8372 25.2007 10.8078C23.3554 10.7785 21.3884 11.0156 19.5662 11.2993C16.9419 11.708 13.967 12.3366 12.0821 13.9241C11.6928 14.2512 9.33454 15.9997 9.69098 19.7099L9.68986 19.7101Z" fill="#1E1E1E"/>
        <path d="M18.1616 17.0329L17.3945 17.1481L17.5097 17.9152L18.2768 17.8001L18.1616 17.0329Z" fill="white"/>
        <path d="M18.3921 17.939L17.625 18.0541L17.7401 18.8212L18.5072 18.7061L18.3921 17.939Z" fill="white"/>
        <path d="M19.7046 16.802L18.9375 16.9171L19.0526 17.6842L19.8197 17.5691L19.7046 16.802Z" fill="white"/>
        <path d="M20.0484 17.6899L19.2812 17.8051L19.3964 18.5722L20.1635 18.457L20.0484 17.6899Z" fill="white"/>
        <path d="M18.9585 18.7952L18.1914 18.9103L18.3065 19.6774L19.0736 19.5623L18.9585 18.7952Z" fill="white"/>
        <path d="M19.8452 18.6628L19.0781 18.778L19.1932 19.5451L19.9604 19.4299L19.8452 18.6628Z" fill="white"/>
        <path d="M22.0288 16.4524L21.2617 16.5675L21.3768 17.3346L22.144 17.2195L22.0288 16.4524Z" fill="white"/>
        <path d="M22.0132 17.3955L21.2461 17.5106L21.3612 18.2777L22.1283 18.1626L22.0132 17.3955Z" fill="white"/>
        <path d="M23.6929 16.2029L22.9258 16.318L23.0409 17.0851L23.808 16.97L23.6929 16.2029Z" fill="white"/>
        <path d="M23.6734 17.1465L22.9062 17.2616L23.0214 18.0287L23.7885 17.9136L23.6734 17.1465Z" fill="white"/>
        <path d="M22.6031 18.2483L21.8359 18.3634L21.9511 19.1305L22.7182 19.0154L22.6031 18.2483Z" fill="white"/>
        <path d="M23.4898 18.1152L22.7227 18.2303L22.8378 18.9975L23.6049 18.8823L23.4898 18.1152Z" fill="white"/>
        <path d="M6.55144 20.8125C7.09808 21.0412 7.75932 21.0171 8.33705 20.9828C9.03653 20.9404 9.73512 20.8163 10.3987 20.588C10.6271 20.5093 10.7363 20.1901 10.632 19.9804C10.513 19.7409 10.269 19.6626 10.0244 19.7471C9.95176 19.7717 9.87901 19.7951 9.80608 19.8174C9.88663 19.7928 9.80942 19.8169 9.77207 19.8259C9.73917 19.8343 9.70738 19.8425 9.67448 19.8508C9.51983 19.89 9.36419 19.9225 9.20692 19.9517C8.88777 20.0099 8.56467 20.0493 8.24112 20.0705C8.16664 20.0748 8.09104 20.0794 8.01622 20.0815C8.00269 20.0824 7.87565 20.0855 7.93806 20.0841C8.00047 20.0827 7.89475 20.0838 7.88234 20.0845C7.73554 20.0849 7.58901 20.0796 7.44372 20.0672C7.32725 20.0574 7.21124 20.0429 7.09645 20.0214C7.06839 20.0165 7.04111 20.0092 7.01289 20.0032C6.91769 19.9834 7.11376 20.0382 7.0258 20.0058C6.98126 19.9898 6.93595 19.9761 6.89108 19.9578C6.66878 19.8647 6.37458 19.9829 6.29326 20.2148C6.21195 20.4467 6.31239 20.714 6.55033 20.8126L6.55144 20.8125Z" fill="#1E1E1E"/>
        <path d="M31.691 17.5289C32.4495 17.3946 33.2188 17.3246 33.9708 17.1537C34.6445 17.0003 35.6368 16.8229 35.7682 15.9994C35.8065 15.7614 35.6075 15.5055 35.3668 15.487C35.11 15.4675 34.8948 15.6341 34.8544 15.8884C34.8393 15.9851 34.8957 15.807 34.8516 15.8922C34.9081 15.7835 34.8618 15.8691 34.846 15.893C34.8008 15.9636 34.9164 15.8461 34.8398 15.8974C34.8181 15.912 34.7934 15.9294 34.7744 15.9471C34.7376 15.9822 34.8509 15.9105 34.7744 15.9471C34.7425 15.9621 34.7121 15.9792 34.6791 15.9944C34.613 16.0248 34.5451 16.0498 34.4769 16.0737C34.4488 16.0836 34.4194 16.0925 34.3912 16.1013C34.3737 16.1062 34.3575 16.1121 34.34 16.117C34.3967 16.1005 34.4088 16.0976 34.3748 16.1061C34.3025 16.1249 34.2294 16.1461 34.1571 16.1649C33.973 16.213 33.7882 16.2556 33.6026 16.2937C32.9255 16.4317 32.2354 16.4989 31.5554 16.618C31.3181 16.6604 31.1196 16.8929 31.1684 17.1417C31.2171 17.3905 31.4381 17.5737 31.6921 17.5287L31.691 17.5289Z" fill="#1E1E1E"/>
    </g>
</svg>
